<?xml version="1.0" standalone="no"?>
<!DOCTYPE svg PUBLIC "-//W3C//DTD SVG 20010904//EN"
 "http://www.w3.org/TR/2001/REC-SVG-20010904/DTD/svg10.dtd">
<svg version="1.0" xmlns="http://www.w3.org/2000/svg"
 width="512.000000pt" height="512.000000pt" viewBox="0 0 512.000000 512.000000"
 preserveAspectRatio="xMidYMid meet">
<metadata>
Created by potrace 1.14, written by Peter Selinger 2001-2017
</metadata>
<g transform="translate(0.000000,512.000000) scale(0.100000,-0.100000)"
fill="#000000" stroke="none">
<path d="M840 5111 c0 -6 -12 -16 -27 -23 -29 -14 -39 -29 -48 -71 -7 -37 -38
-33 -45 6 -5 26 -6 27 -27 12 -17 -12 -23 -29 -29 -85 -7 -75 -23 -95 -25 -32
-1 20 -1 43 0 50 3 17 -9 15 -64 -13 -37 -18 -45 -26 -32 -31 23 -9 21 -24 -3
-24 -14 0 -19 -6 -17 -21 2 -24 -33 -52 -40 -32 -3 9 -10 9 -27 -2 -28 -18
-56 -10 -56 16 0 26 -16 24 -24 -3 -10 -38 -7 -58 9 -58 8 0 15 -4 15 -10 0
-13 -23 -13 -37 1 -7 7 -23 9 -37 5 -34 -8 -34 -36 -1 -36 38 0 31 -27 -9 -34
-30 -6 -34 -11 -40 -46 -5 -34 -10 -40 -31 -40 -13 0 -30 9 -38 20 -13 19 -21
20 -111 14 -85 -6 -96 -9 -96 -26 0 -16 6 -18 55 -12 37 5 55 3 55 -4 0 -20
-39 -33 -75 -26 l-35 6 0 -2306 0 -2306 74 0 75 0 -25 43 c-14 23 -40 63 -59
89 -38 55 -49 120 -43 253 6 107 58 242 115 300 44 44 100 124 175 254 35 61
55 109 68 170 36 160 41 176 67 231 14 30 43 75 63 100 21 25 50 70 65 100 15
30 58 107 95 170 37 63 75 131 83 152 14 32 77 88 101 88 5 0 23 10 40 23 17
13 51 29 76 37 25 7 50 17 55 21 12 8 106 40 195 65 82 24 175 26 175 4 0 -15
-137 -89 -268 -144 -37 -15 -67 -34 -67 -42 0 -17 4 -17 43 0 18 8 73 31 122
51 50 21 110 49 134 63 40 22 45 23 56 8 15 -20 25 -20 40 1 16 21 31 11 45
-32 10 -29 9 -38 -7 -59 -10 -14 -31 -28 -47 -32 -56 -12 -306 -145 -306 -162
0 -11 59 12 95 37 22 16 61 36 86 44 26 9 75 30 109 46 35 17 71 31 80 31 26
0 51 -34 52 -71 1 -36 -26 -65 -71 -76 -29 -7 -269 -119 -288 -135 -7 -6 -10
-14 -7 -19 3 -5 40 9 82 30 161 80 219 102 246 91 22 -8 26 -16 26 -49 0 -32
-5 -43 -29 -60 -16 -12 -35 -21 -43 -21 -7 0 -24 -6 -38 -14 -14 -7 -46 -25
-72 -39 -26 -14 -54 -32 -63 -40 -8 -9 -39 -29 -67 -46 -31 -18 -73 -55 -102
-91 -46 -57 -131 -131 -186 -160 -30 -17 -133 -22 -166 -10 -18 7 -26 5 -36
-9 -7 -10 -29 -26 -48 -36 -44 -22 -80 -54 -80 -72 0 -18 5 -17 34 10 14 13
31 24 38 24 7 0 19 2 27 4 10 3 14 -14 16 -71 1 -41 8 -109 14 -150 34 -227
35 -353 5 -489 -23 -101 -168 -375 -213 -401 -10 -6 69 -9 235 -10 218 0 253
2 265 16 12 14 14 14 26 -2 7 -10 15 -15 18 -12 9 9 8 103 -3 182 -6 43 -9 83
-6 87 6 10 79 3 143 -13 37 -10 41 -13 27 -23 -23 -17 -21 -75 2 -82 14 -3 17
-11 14 -35 -4 -26 -2 -30 13 -24 13 5 16 2 11 -10 -3 -8 -6 -22 -6 -30 0 -8
-6 -13 -12 -11 -7 1 -14 -9 -16 -22 -4 -23 -3 -24 76 -18 44 2 88 10 98 16 17
9 16 10 -8 11 -16 0 -28 5 -28 10 0 6 11 10 24 10 32 0 56 10 56 22 0 6 8 17
17 24 17 13 17 13 1 14 -22 0 -23 13 -3 30 8 7 12 16 9 21 -3 5 14 9 37 9 64
0 42 9 -29 12 -59 2 -77 10 -49 21 6 3 2 6 -11 6 -13 1 -30 8 -38 16 -19 19
-14 19 36 -1 30 -12 59 -15 117 -10 198 15 286 30 632 105 99 22 261 29 261
11 0 -6 -28 -10 -65 -10 -74 0 -84 -11 -25 -29 22 -6 40 -17 40 -23 0 -6 8 -4
18 5 23 21 56 22 76 2 8 -8 27 -15 43 -16 15 0 22 -3 16 -6 -15 -5 -17 -23 -4
-23 5 0 16 6 23 14 18 17 104 30 113 16 3 -5 14 -10 24 -10 10 0 32 -7 47 -15
16 -8 36 -15 44 -15 21 0 123 -39 135 -52 7 -8 4 -9 -10 -4 -11 4 -42 9 -70
11 -35 3 -41 2 -20 -3 17 -4 30 -12 30 -19 0 -6 3 -15 8 -19 4 -4 7 0 7 9 0
10 7 17 15 17 9 0 12 -6 9 -15 -4 -8 1 -17 9 -21 9 -3 13 -12 10 -20 -3 -8 0
-14 7 -14 6 0 9 -4 6 -9 -3 -4 3 -19 15 -32 11 -12 17 -29 15 -36 -4 -10 14
-13 82 -13 95 0 132 7 132 23 0 5 11 25 25 43 14 18 25 39 25 47 0 9 6 18 13
21 9 5 9 7 -2 12 -18 8 65 41 127 50 43 6 44 6 38 -17 -4 -13 -25 -59 -46
-101 l-39 -78 266 0 266 0 -5 52 c-3 29 -1 67 3 83 7 30 7 30 8 3 2 -48 20
-41 19 7 0 35 5 51 21 66 11 11 21 24 21 30 0 6 5 7 11 3 7 -4 7 1 -1 16 -6
12 -12 49 -13 83 -1 40 -7 66 -16 73 -15 12 -6 38 10 28 7 -4 7 0 0 12 -5 11
-13 36 -16 56 -4 28 -13 41 -34 51 l-29 15 5 -77 c3 -42 10 -78 14 -79 5 -2 9
-20 8 -40 l-1 -37 -7 31 c-4 17 -10 35 -14 40 -3 5 -9 36 -12 69 -4 34 -14 64
-22 70 -13 10 -13 14 -2 26 23 23 106 201 117 249 6 25 14 81 17 125 8 97 70
302 127 419 72 145 80 175 94 310 12 131 6 318 -15 416 -46 215 -187 561 -292
716 -33 49 -109 198 -109 214 0 6 8 9 18 6 9 -3 55 -14 102 -26 160 -38 261
-104 310 -200 57 -112 61 -156 66 -605 3 -247 11 -476 20 -575 8 -91 19 -214
24 -275 11 -129 31 -617 34 -826 2 -80 6 -151 10 -157 4 -7 11 -33 16 -60 13
-71 35 -148 66 -235 l28 -77 343 0 343 0 0 1806 0 1806 -22 -6 c-13 -4 -61
-13 -108 -21 -100 -18 -336 -62 -400 -75 -25 -5 -94 -18 -155 -30 -60 -11
-243 -45 -405 -75 -162 -31 -302 -54 -311 -53 -13 3 -9 17 24 88 53 113 49
104 107 275 54 156 65 193 81 260 27 116 31 153 36 295 4 137 1 173 -22 305
-15 83 -31 174 -35 202 -11 72 -85 204 -157 281 l-58 62 -1428 0 c-890 0
-1427 -4 -1427 -9z m2259 -32 c24 -10 53 -19 63 -19 27 0 103 -47 142 -87 17
-17 48 -66 70 -109 42 -84 55 -153 56 -295 l0 -86 -52 5 c-50 4 -56 2 -105
-38 -65 -51 -68 -68 -8 -36 50 27 142 43 156 29 10 -10 -8 -103 -20 -103 -3 0
-14 7 -24 15 -25 18 -89 28 -127 20 -45 -10 -25 -28 25 -22 49 5 57 1 74 -31
12 -22 12 -22 -26 -8 -62 23 -92 27 -115 15 -17 -9 -23 -9 -26 0 -7 20 -32 -8
-32 -35 0 -15 8 -25 23 -29 12 -4 41 -15 64 -26 56 -25 77 -25 70 1 -4 15 0
20 15 20 15 0 19 -5 15 -20 -3 -13 2 -25 16 -35 19 -14 21 -23 18 -92 -4 -102
-71 -303 -141 -423 -48 -81 -240 -314 -283 -343 -40 -27 -47 -28 -137 -24
-131 5 -240 36 -298 85 -24 20 -58 48 -76 61 -48 37 -106 113 -106 139 0 13
14 63 31 110 28 80 66 219 89 332 6 25 17 77 25 115 26 123 87 295 104 295 5
0 15 -7 22 -17 17 -19 65 -40 137 -59 74 -19 99 -18 107 6 3 11 12 20 19 20 7
0 21 -9 31 -20 21 -24 45 -26 45 -5 0 50 -150 129 -267 141 -35 4 -63 10 -63
14 0 4 11 33 25 64 14 31 25 62 25 68 0 28 34 48 80 48 72 0 115 -24 199 -111
43 -43 82 -79 88 -79 12 0 23 23 23 50 0 11 -29 37 -74 69 -103 71 -171 101
-228 101 -28 0 -48 5 -48 11 0 26 92 215 133 273 30 43 51 61 82 69 35 9 138
-4 184 -24z m-2706 -356 c-7 -2 -19 -2 -25 0 -7 3 -2 5 12 5 14 0 19 -2 13 -5z
m-267 -160 c-10 -10 -19 5 -10 18 6 11 8 11 12 0 2 -7 1 -15 -2 -18z m-53 10
c-7 -2 -19 -2 -25 0 -7 3 -2 5 12 5 14 0 19 -2 13 -5z m2641 -99 c23 -9 20
-34 -3 -34 -22 0 -35 15 -26 30 7 12 8 12 29 4z m-654 -68 c0 -2 3 -11 6 -20
7 -18 -4 -20 -41 -6 -31 12 -24 30 11 30 13 0 24 -2 24 -4z m90 -122 c0 -6 -7
-28 -16 -49 l-15 -38 -29 34 c-31 37 -36 62 -20 105 l11 27 34 -33 c19 -19 35
-39 35 -46z m-124 4 c2 -65 -7 -73 -34 -28 -25 40 -18 92 11 88 18 -3 21 -11
23 -60z m-66 -28 c0 -26 26 -43 73 -49 38 -5 42 -9 45 -37 2 -19 -4 -40 -17
-55 l-19 -24 -56 56 c-52 52 -56 59 -56 104 0 41 2 46 15 35 8 -7 15 -20 15
-30z m120 -188 c0 -4 -16 -71 -35 -149 -44 -180 -55 -252 -55 -390 0 -147 18
-203 103 -322 114 -160 163 -206 241 -226 72 -19 109 -19 146 0 49 26 38 41
-32 42 -62 2 -64 3 -108 51 -52 55 -70 118 -70 240 0 86 24 211 46 241 2 2 22
-18 46 -43 24 -25 49 -46 55 -46 6 0 13 -6 16 -14 13 -33 145 -126 210 -148
37 -12 67 -25 67 -30 0 -4 -17 -24 -38 -45 -21 -21 -68 -90 -104 -153 -86
-151 -90 -160 -79 -160 21 0 81 78 125 160 70 133 76 133 77 9 0 -57 3 -117 5
-134 10 -63 47 -206 55 -211 27 -16 -2 -24 -94 -23 -136 0 -190 -14 -254 -70
-49 -42 -13 -57 40 -17 51 38 95 47 222 44 l117 -2 24 -36 c22 -31 72 -104
159 -233 36 -53 51 -71 135 -163 41 -44 95 -105 120 -134 l45 -53 -3 -71 c-8
-157 -19 -214 -58 -298 -43 -95 -122 -205 -192 -269 -87 -78 -175 -153 -211
-180 -51 -37 -278 -119 -329 -119 -6 0 -7 207 -2 365 0 16 -4 31 -10 33 -6 2
-10 46 -10 107 0 103 0 105 33 142 31 37 69 72 117 111 37 30 14 40 -31 14
-50 -29 -72 -46 -119 -94 -37 -38 -50 -40 -50 -6 0 10 -3 18 -8 18 -4 0 -13
12 -19 28 -16 34 -127 146 -142 141 -5 -2 7 -24 29 -49 44 -50 91 -133 114
-200 25 -74 36 -203 36 -419 l0 -204 -45 6 c-24 4 -53 11 -62 15 -10 5 -47 23
-83 40 -124 59 -215 114 -258 156 -185 176 -283 454 -317 896 -3 47 -11 105
-16 130 -13 59 -13 300 1 369 6 32 6 59 1 69 -6 11 -5 25 4 42 7 14 25 61 40
105 15 43 38 101 52 128 14 26 24 50 21 52 -11 12 -86 -104 -111 -172 -16 -43
-35 -93 -44 -111 -8 -18 -18 -56 -23 -85 -10 -54 -21 -96 -63 -232 -13 -44
-28 -105 -32 -135 -4 -30 -14 -80 -22 -110 -8 -30 -18 -68 -20 -83 -4 -19 -11
-27 -22 -25 -12 2 -18 22 -25 81 -7 57 -13 77 -24 77 -12 0 -14 -14 -10 -79
l5 -79 -51 -5 c-28 -3 -58 -8 -67 -12 -14 -5 -17 5 -22 62 -3 37 -1 112 4 167
5 54 7 101 4 104 -19 20 -66 -255 -52 -309 7 -25 -1 -49 -17 -49 -6 -1 -29 -9
-51 -20 -54 -26 -62 -25 -74 13 -40 130 -40 264 1 387 14 41 38 114 52 162 26
84 83 200 126 255 44 57 124 133 139 132 11 0 12 -2 3 -6 -17 -7 -68 -111 -76
-157 -4 -20 -17 -45 -29 -56 -18 -17 -19 -24 -10 -39 8 -13 9 -30 3 -53 -15
-54 -28 -202 -20 -218 6 -10 10 -4 14 20 4 30 20 139 31 217 2 11 11 32 20 46
9 14 18 47 20 74 2 26 13 67 24 90 12 23 21 47 21 53 0 5 5 10 10 10 6 0 10
10 10 22 0 31 220 246 284 277 28 13 75 30 105 37 31 7 67 16 80 20 18 5 23 4
19 -7 -2 -7 -18 -16 -34 -20 -70 -14 -170 -95 -230 -186 -61 -91 -133 -254
-134 -300 0 -34 21 -3 70 100 92 194 147 264 276 354 42 29 64 17 44 -24 -8
-15 -22 -39 -32 -52 -20 -26 -24 -51 -8 -51 28 0 81 128 105 252 9 45 21 94
26 107 5 13 14 58 19 100 16 124 91 421 106 421 8 0 14 -4 14 -8z m-1013
-1326 c-3 -8 -11 -34 -17 -58 -16 -63 -59 -194 -85 -263 -13 -35 -28 -106 -35
-170 -14 -123 -18 -130 -94 -174 -58 -32 -85 -78 -125 -206 -12 -38 -36 -95
-54 -126 -18 -31 -48 -86 -69 -122 -20 -35 -64 -102 -98 -148 -92 -123 -120
-187 -144 -329 -15 -81 -34 -124 -112 -252 -28 -46 -59 -99 -69 -118 -10 -19
-38 -57 -61 -84 -24 -26 -44 -52 -44 -57 0 -5 -5 -9 -11 -9 -22 0 0 95 66 287
104 306 123 395 165 780 31 284 73 470 150 663 81 205 168 295 320 330 30 7
93 23 140 36 146 39 186 44 177 20z m3451 -328 c3 -50 -13 -128 -27 -128 -12
0 -21 52 -21 115 0 56 5 67 30 63 10 -2 16 -17 18 -50z m-3539 -290 c16 -69
15 -78 -15 -78 -22 0 -25 3 -20 23 3 12 6 44 6 72 0 57 12 50 29 -17z m3517
25 c-10 -10 -19 5 -10 18 6 11 8 11 12 0 2 -7 1 -15 -2 -18z m-3586 -108 c0
-9 -14 -24 -31 -33 -17 -9 -44 -28 -60 -40 -20 -16 -29 -19 -29 -10 0 21 29
58 64 79 38 23 56 24 56 4z m701 -117 c9 -40 15 -91 14 -113 -3 -25 -1 -34 5
-25 8 12 10 12 14 0 8 -26 24 -105 25 -128 1 -7 6 -10 11 -7 6 3 10 -3 10 -14
0 -11 4 -22 10 -26 5 -3 37 -52 72 -108 69 -112 189 -241 250 -270 20 -10 52
-35 71 -57 19 -22 37 -40 42 -40 4 0 23 -10 42 -21 53 -33 29 -44 -64 -30 -70
11 -193 57 -193 72 0 3 -34 40 -75 81 -41 41 -75 78 -75 82 0 3 -33 75 -74
159 -96 197 -111 243 -97 292 10 38 5 96 -11 106 -15 9 -15 119 0 119 4 0 14
-33 23 -72z m1634 -319 c-4 -5 -2 -9 4 -9 5 0 12 6 14 13 4 7 6 6 6 -5 1 -13
9 -15 44 -11 23 3 51 12 62 19 11 8 42 14 71 14 40 0 57 -5 80 -25 16 -14 36
-28 46 -30 9 -3 35 -35 57 -71 36 -57 42 -76 51 -156 6 -50 8 -107 4 -127 -14
-85 -37 -178 -50 -203 -8 -14 -14 -33 -14 -42 0 -9 -4 -16 -8 -16 -4 0 -14
-17 -22 -37 -12 -35 -33 -69 -70 -116 -21 -26 -107 -87 -123 -87 -7 0 -17 -4
-23 -10 -14 -14 -160 -32 -197 -24 -116 24 -178 67 -216 148 -21 47 -23 59
-16 145 3 52 12 110 20 130 7 20 16 48 19 63 3 14 9 33 12 42 5 13 -1 16 -26
16 -42 0 -61 19 -46 47 6 12 61 72 121 135 61 62 128 136 149 165 22 29 43 50
48 47 5 -3 6 -10 3 -15z m-1771 -141 c3 -46 20 -141 37 -213 37 -156 49 -361
30 -496 -12 -81 -63 -252 -83 -276 -5 -7 -7 -16 -4 -21 3 -5 0 -37 -6 -71
l-12 -62 -30 8 c-48 11 -85 7 -153 -17 -47 -17 -73 -21 -107 -16 -76 12 -80
23 -57 156 5 30 12 96 15 145 4 50 14 171 23 269 8 100 13 215 9 260 -3 45 -6
89 -6 99 0 9 -4 17 -9 17 -11 0 -19 -63 -26 -190 -2 -52 -9 -129 -14 -170 -6
-41 -15 -142 -21 -224 -11 -165 -17 -179 -78 -196 -44 -12 -49 -7 -34 31 15
41 -3 414 -25 519 -23 107 -22 133 2 139 81 23 194 122 272 239 25 36 42 52
58 52 26 0 68 20 138 66 28 19 57 34 63 34 7 0 14 -32 18 -82z m269 -141 c37
-40 38 -99 2 -123 -23 -15 -27 -15 -60 6 -75 46 -62 177 15 151 8 -3 27 -18
43 -34z m972 -705 c84 -80 109 -99 134 -100 19 0 50 -15 79 -35 44 -33 92 -81
92 -92 0 -25 -211 67 -277 121 -60 49 -164 204 -137 204 3 0 53 -44 109 -98z
m-585 35 c0 -33 -94 -86 -219 -122 -170 -51 -151 -34 129 111 51 26 90 31 90
11z m1737 -209 c-3 -8 -6 -5 -6 6 -1 11 2 17 5 13 3 -3 4 -12 1 -19z m-357
-17 c0 -11 -25 -21 -51 -21 -21 0 -26 16 -6 23 21 9 57 7 57 -2z m-941 -127
c2 -2 -18 -4 -45 -4 -34 0 -44 3 -34 9 12 9 68 4 79 -5z m-1210 -29 c17 -19
19 -25 8 -25 -8 0 -18 6 -21 13 -5 9 -7 9 -12 -1 -5 -10 -9 -10 -20 -1 -11 9
-11 15 -3 25 15 19 20 18 48 -11z m2498 -67 c-2 -18 -4 -4 -4 32 0 36 2 50 4
33 2 -18 2 -48 0 -65z m-1232 72 c-3 -5 -12 -10 -20 -10 -8 0 -17 5 -20 10 -4
6 5 10 20 10 15 0 24 -4 20 -10z m-1335 -14 c0 -3 -4 -8 -10 -11 -5 -3 -10 -1
-10 4 0 6 5 11 10 11 6 0 10 -2 10 -4z m15 -36 c-3 -5 -10 -10 -16 -10 -5 0
-9 5 -9 10 0 6 7 10 16 10 8 0 12 -4 9 -10z m0 -30 c19 -8 19 -9 -2 -9 -12 -1
-25 4 -28 9 -7 12 2 12 30 0z m35 -34 c0 -2 -7 -6 -15 -10 -8 -3 -15 -1 -15 4
0 6 7 10 15 10 8 0 15 -2 15 -4z m1693 -13 c-7 -2 -21 -2 -30 0 -10 3 -4 5 12
5 17 0 24 -2 18 -5z"/>
<path d="M3164 4635 c-8 -19 3 -35 26 -35 19 0 30 17 23 38 -6 17 -42 15 -49
-3z"/>
<path d="M2665 4610 c-16 -25 25 -40 55 -20 13 9 13 11 0 20 -19 13 -47 13
-55 0z"/>
<path d="M2870 4556 c0 -3 9 -10 20 -16 11 -6 20 -8 20 -6 0 3 -9 10 -20 16
-11 6 -20 8 -20 6z"/>
<path d="M3174 4214 c3 -9 6 -24 6 -35 0 -10 4 -19 8 -19 4 0 6 16 4 35 -2 19
-9 35 -14 35 -6 0 -7 -7 -4 -16z"/>
<path d="M2948 4044 c-44 -13 -6 -44 53 -44 26 0 51 -4 54 -10 9 -14 25 -12
25 3 0 34 -82 65 -132 51z"/>
<path d="M3153 3994 c-29 -28 -50 -54 -46 -58 3 -3 21 -6 40 -6 28 0 35 5 48
37 9 21 15 47 13 58 -3 17 -10 13 -55 -31z"/>
<path d="M2714 3819 c-3 -5 0 -18 6 -29 6 -11 10 -37 9 -58 -5 -77 55 -138
163 -166 69 -18 135 -13 154 11 8 10 19 36 26 58 6 22 17 47 24 55 7 8 17 28
23 43 10 26 8 32 -19 57 -18 17 -46 30 -73 34 -61 9 -306 5 -313 -5z m283 -55
c27 -7 37 -32 22 -50 -13 -16 -51 -12 -136 14 -83 25 -77 42 15 42 42 0 87 -3
99 -6z"/>
<path d="M2226 2993 c-9 -10 -7 -119 4 -166 5 -23 12 -63 15 -88 6 -46 28 -89
40 -78 3 4 -1 38 -10 75 -9 38 -19 111 -22 162 -6 88 -12 110 -27 95z"/>
<path d="M2030 2777 c0 -7 12 -25 27 -41 l27 -29 -217 5 c-172 5 -217 3 -217
-7 0 -23 33 -27 274 -26 l240 1 39 -31 c21 -17 41 -28 44 -25 11 10 -65 73
-95 79 -19 4 -43 22 -63 47 -32 39 -59 52 -59 27z"/>
<path d="M2486 1336 c1 -61 2 -114 4 -118 1 -5 3 -18 4 -30 1 -17 7 -22 21
-20 11 1 34 4 51 6 17 1 40 9 51 17 22 16 37 59 20 59 -7 0 -7 4 1 12 10 10
15 10 22 -2 5 -8 13 -11 17 -6 4 4 -1 14 -11 22 -11 7 -17 17 -13 20 4 4 2 13
-4 21 -6 7 -9 21 -6 32 7 29 -6 42 -52 48 -31 4 -41 10 -41 24 0 11 -6 20 -12
20 -7 1 -22 3 -33 4 -19 2 -20 -4 -19 -109z"/>
<path d="M1267 1393 c-9 -8 -9 -196 -1 -217 3 -9 13 -16 21 -16 11 0 13 9 9
43 -4 23 -8 75 -11 116 -5 76 -7 86 -18 74z"/>
<path d="M488 4903 c7 -3 16 -2 19 1 4 3 -2 6 -13 5 -11 0 -14 -3 -6 -6z"/>
<path d="M5025 4306 c-49 -65 -99 -132 -111 -147 -23 -32 -159 -133 -193 -144
-11 -3 -21 -10 -21 -15 0 -4 -30 -27 -67 -51 -38 -23 -70 -45 -73 -49 -3 -3
-39 -28 -80 -55 -85 -55 -153 -106 -158 -117 -2 -5 -8 -8 -13 -8 -4 0 -40 -20
-78 -45 -38 -25 -72 -45 -75 -45 -3 0 -31 -16 -62 -36 -31 -20 -70 -42 -87
-50 -18 -8 -68 -37 -112 -64 -44 -27 -85 -50 -91 -50 -7 0 -14 -7 -18 -15 -3
-8 -12 -15 -21 -15 -8 0 -15 -5 -15 -10 0 -14 66 0 255 55 44 12 141 39 215
60 74 20 162 45 195 55 33 10 98 28 145 40 47 13 154 43 239 67 l154 45 79
-12 c43 -7 81 -10 84 -8 2 3 3 169 2 369 l-3 364 -90 -119z"/>
<path d="M3880 604 c0 -8 5 -12 10 -9 6 3 10 10 10 16 0 5 -4 9 -10 9 -5 0
-10 -7 -10 -16z"/>
<path d="M2508 243 c7 -3 16 -2 19 1 4 3 -2 6 -13 5 -11 0 -14 -3 -6 -6z"/>
<path d="M2610 241 c0 -16 19 -23 40 -16 30 10 24 25 -10 25 -16 0 -30 -4 -30
-9z"/>
<path d="M3985 10 c-3 -5 -1 -10 4 -10 6 0 11 5 11 10 0 6 -2 10 -4 10 -3 0
-8 -4 -11 -10z"/>
</g>
</svg>
